<mxfile host="app.diagrams.net" modified="2023-06-21T13:27:46.249Z" agent="Mozilla/5.0 (Windows NT 10.0; Win64; x64) AppleWebKit/537.36 (KHTML, like Gecko) Chrome/114.0.0.0 Safari/537.36 Edg/114.0.1823.51" etag="7EKtXCKUsJyKhudn0RWr" version="21.5.0" type="github">
  <diagram id="C5RBs43oDa-KdzZeNtuy" name="Page-1">
    <mxGraphModel dx="794" dy="452" grid="0" gridSize="10" guides="1" tooltips="1" connect="1" arrows="1" fold="1" page="1" pageScale="1" pageWidth="827" pageHeight="1169" background="#FFFFFF" math="0" shadow="0">
      <root>
        <mxCell id="WIyWlLk6GJQsqaUBKTNV-0" />
        <mxCell id="WIyWlLk6GJQsqaUBKTNV-1" parent="WIyWlLk6GJQsqaUBKTNV-0" />
        <mxCell id="iSjQ39G52tXvBVH5eH1I-6" value="&lt;h1&gt;services needed&lt;/h1&gt;&lt;p&gt;- web scrapper service&lt;/p&gt;&lt;p&gt;- database service&lt;/p&gt;&lt;p&gt;- web scrapper service template service&lt;/p&gt;" style="text;html=1;strokeColor=none;fillColor=none;spacing=5;spacingTop=-20;whiteSpace=wrap;overflow=hidden;rounded=0;" vertex="1" parent="WIyWlLk6GJQsqaUBKTNV-1">
          <mxGeometry x="378" y="190" width="209" height="199" as="geometry" />
        </mxCell>
        <mxCell id="iSjQ39G52tXvBVH5eH1I-19" value="&lt;h1&gt;Web scrapper service&lt;/h1&gt;&lt;p&gt;goes to sites and collects data then saves it to a database&lt;/p&gt;" style="text;html=1;strokeColor=none;fillColor=none;spacing=5;spacingTop=-20;whiteSpace=wrap;overflow=hidden;rounded=0;" vertex="1" parent="WIyWlLk6GJQsqaUBKTNV-1">
          <mxGeometry x="54" y="190" width="186" height="163" as="geometry" />
        </mxCell>
        <mxCell id="iSjQ39G52tXvBVH5eH1I-20" value="&lt;h1&gt;Web scrapper template service&lt;/h1&gt;&lt;p&gt;creates data needed for web scrapper to extract data from site&lt;/p&gt;&lt;p&gt;EX: tags to look for ? any text to match what category it should be saved under&lt;/p&gt;" style="text;html=1;strokeColor=none;fillColor=none;spacing=5;spacingTop=-20;whiteSpace=wrap;overflow=hidden;rounded=0;" vertex="1" parent="WIyWlLk6GJQsqaUBKTNV-1">
          <mxGeometry x="54" y="363" width="192" height="203" as="geometry" />
        </mxCell>
      </root>
    </mxGraphModel>
  </diagram>
</mxfile>
